<svg version="1.1" id="Layer_1" xmlns="http://www.w3.org/2000/svg" xmlns:xlink="http://www.w3.org/1999/xlink" x="0px" y="0px"
	 width="100%" viewBox="0 0 512 512" enable-background="new 0 0 512 512" xml:space="preserve">
<path fill="#6E07F3" opacity="1.000000" stroke="none" 
	d="
M317.000000,513.000000 
	C277.312439,513.000000 237.624878,513.000000 197.351868,512.543701 
	C196.723389,497.258270 196.622070,482.428955 196.685501,467.600342 
	C196.698486,464.561951 195.938522,462.483978 192.831039,461.519958 
	C181.064484,457.869629 169.697769,453.219849 158.835861,447.402924 
	C155.846619,445.802094 153.765289,446.267181 151.395370,448.696045 
	C141.853897,458.474701 132.141861,468.087311 122.457344,477.725555 
	C121.210312,478.966644 120.258980,480.705017 119.005714,479.971375 
	C90.522957,451.579987 62.040203,423.188568 33.359360,394.599701 
	C34.098034,393.826233 35.215160,392.613617 36.377506,391.446075 
	C45.781994,381.999237 55.113750,372.477631 64.655029,363.170868 
	C67.506096,360.389862 68.017548,357.916901 66.109810,354.391022 
	C60.718559,344.427124 56.536697,333.910431 53.174622,323.116333 
	C51.795715,318.689301 49.575089,317.214661 44.955864,317.268646 
	C30.306955,317.439819 15.652383,317.126221 1.000000,317.000000 
	C1.000000,276.979095 1.000000,236.958206 1.397474,196.580261 
	C17.099569,197.124603 32.417850,196.392883 47.727745,196.621719 
	C51.010189,196.670776 51.823608,194.401108 52.645405,191.945190 
	C56.447716,180.582077 60.761517,169.420227 66.503342,158.881256 
	C68.149368,155.860046 67.663437,153.833130 65.254509,151.468094 
	C55.627453,142.016479 46.158733,132.403137 36.673878,122.807663 
	C35.319763,121.437759 33.502853,120.347664 34.198574,119.117599 
	C62.591278,90.683029 90.983986,62.248466 119.604370,33.585884 
	C120.494171,34.400948 122.004547,35.687099 123.405174,37.083340 
	C132.133057,45.783890 141.050232,54.309574 149.451477,63.315964 
	C153.264923,67.404099 156.391953,68.235390 161.372025,65.343765 
	C170.446716,60.074638 180.309555,56.388218 190.325638,53.324886 
	C195.095810,51.865967 196.835281,49.512375 196.756607,44.440262 
	C196.532013,29.964918 196.878281,15.480717 197.000000,1.000000 
	C236.687561,1.000000 276.375122,1.000000 316.649902,1.455926 
	C317.284698,16.733292 317.398132,31.555052 317.325897,46.375908 
	C317.310913,49.448540 318.152832,51.447605 321.211487,52.429222 
	C333.097992,56.243965 344.662262,60.866158 355.682465,66.755318 
	C358.390259,68.202339 360.292328,67.550385 362.285217,65.497078 
	C366.692230,60.956551 371.301392,56.612053 375.701324,52.064919 
	C382.052734,45.500919 388.291656,38.828056 394.426575,32.361938 
	C423.752533,61.804005 452.144867,90.308708 480.813599,119.090919 
	C479.907410,120.071388 478.723022,121.435524 477.452637,122.714211 
	C467.945099,132.283752 458.474121,141.890793 448.864990,151.357468 
	C446.362732,153.822632 445.812988,155.979309 447.608459,159.197296 
	C453.210632,169.237839 457.464264,179.906113 460.873901,190.856216 
	C462.258972,195.304413 464.464172,196.778442 469.065308,196.729843 
	C483.707611,196.575119 498.354736,196.875473 513.000000,197.000000 
	C513.000000,237.020889 513.000000,277.041779 512.603516,317.417236 
	C496.897064,316.894257 481.574677,317.595123 466.259583,317.397339 
	C463.018616,317.355499 462.168152,319.552551 461.325500,322.048706 
	C457.549622,333.233765 453.356750,344.264984 447.649078,354.623657 
	C445.792267,357.993591 446.254761,360.196442 448.991394,362.849579 
	C458.558319,372.124725 467.907227,381.625397 477.295044,391.083954 
	C478.652191,392.451294 480.461578,393.561127 480.678864,395.199768 
	C452.010223,423.811798 423.626556,452.139404 395.047821,480.661682 
	C393.407776,480.084473 392.122620,478.262329 390.611237,476.762909 
	C381.267670,467.493286 371.884583,458.260681 362.703064,448.832306 
	C360.175903,446.237213 358.043549,445.845978 354.872284,447.589142 
	C344.942047,453.047485 334.463531,457.336609 323.654358,460.658691 
	C318.850372,462.135162 317.212341,464.513153 317.252258,469.553680 
	C317.366913,484.032288 317.866333,498.523987 317.000000,513.000000 
M347.352081,429.728699 
	C350.984039,427.714020 354.843292,426.013672 358.184967,423.597504 
	C361.620789,421.113312 363.680206,422.254730 366.223480,424.867889 
	C374.474426,433.345612 383.031586,441.526764 391.226135,450.057159 
	C394.339478,453.298157 396.448486,453.512146 399.736420,450.168060 
	C416.441925,433.177277 433.297791,416.332306 450.263580,399.601166 
	C453.356995,396.550568 453.491730,394.530457 450.331238,391.476471 
	C441.584808,383.024872 433.156921,374.244507 424.474854,365.724762 
	C422.101288,363.395569 421.692108,361.656494 423.548004,358.535980 
	C433.881378,341.161560 441.939667,322.780731 446.655273,303.051147 
	C447.444214,299.750244 449.099487,298.508087 452.562378,298.559631 
	C464.557892,298.738251 476.560425,298.476990 488.554688,298.692871 
	C493.079468,298.774323 494.731415,297.259399 494.699463,292.642853 
	C494.535889,268.980804 494.524475,245.316238 494.706329,221.654449 
	C494.743744,216.785522 492.946198,215.228119 488.247314,215.312622 
	C476.419617,215.525284 464.583832,215.268707 452.754913,215.443924 
	C449.377869,215.493942 447.537506,214.459900 446.708862,211.114288 
	C442.006287,192.127396 435.063202,174.019150 424.514954,157.480026 
	C421.662628,153.007797 422.045502,150.193222 425.972626,146.562805 
	C434.285980,138.877518 441.977142,130.523453 450.145630,122.674904 
	C453.372864,119.574074 453.573792,117.546967 450.184357,114.226738 
	C433.162445,97.552460 416.307861,80.703796 399.618195,63.696888 
	C396.255554,60.270340 394.221375,60.685402 391.168640,63.859711 
	C382.853394,72.506195 374.214813,80.840988 365.841095,89.432526 
	C363.555420,91.777649 361.826538,92.459671 358.656006,90.557259 
	C341.175812,80.068672 322.621307,72.042885 302.742157,67.259888 
	C299.724701,66.533882 298.521851,64.831894 298.566711,61.587734 
	C298.732544,49.591862 298.495361,37.590099 298.690338,25.595112 
	C298.762115,21.180204 297.428467,19.288019 292.723450,19.318960 
	C268.894684,19.475653 245.064087,19.445704 221.234787,19.337038 
	C217.006851,19.317759 215.242813,20.749369 215.312149,25.158573 
	C215.503357,37.320347 215.269043,49.488575 215.431427,61.651199 
	C215.474777,64.897530 214.294312,66.550262 211.240860,67.277290 
	C191.364456,72.009903 172.795349,79.954185 155.370956,90.533600 
	C152.252380,92.427078 150.473007,91.836563 148.165848,89.473274 
	C139.784988,80.888512 131.109055,72.588837 122.829498,63.909687 
	C119.704636,60.634026 117.682899,60.406013 114.385666,63.756596 
	C97.672920,80.739738 80.828613,97.596626 63.810749,114.273613 
	C60.393162,117.622742 60.715816,119.616829 63.941353,122.720688 
	C72.584694,131.037933 80.893959,139.701263 89.434082,148.127640 
	C91.714828,150.377991 92.482353,152.114914 90.558723,155.330048 
	C80.096802,172.816071 71.983330,191.335861 67.252274,211.232803 
	C66.532616,214.259415 64.935402,215.496658 61.657822,215.449005 
	C49.495552,215.272095 37.327122,215.506317 25.165386,215.311981 
	C20.848358,215.242996 19.284773,216.741852 19.310991,221.110901 
	C19.453989,244.939850 19.466738,268.770752 19.300905,292.599396 
	C19.269041,297.178009 20.819782,298.774963 25.389626,298.693604 
	C37.550514,298.477051 49.718979,298.716187 61.882168,298.576874 
	C64.913353,298.542145 66.533073,299.666687 67.201744,302.500366 
	C71.901474,322.416687 80.060532,340.926910 90.420013,358.471191 
	C92.412704,361.845917 91.676712,363.624573 89.189743,366.043030 
	C80.589142,374.406952 72.269798,383.060516 63.648441,391.402344 
	C60.795105,394.163147 60.312454,396.115479 63.367619,399.135803 
	C80.549370,416.121429 97.625938,433.214569 114.611237,450.396729 
	C117.473198,453.291809 119.440712,453.449493 122.346672,450.441498 
	C130.564545,441.935181 139.143997,433.778198 147.361786,425.271790 
	C150.167953,422.367096 152.220001,421.409760 156.175385,423.829193 
	C173.294250,434.300598 191.641754,442.013397 211.184601,446.752045 
	C214.173874,447.476837 215.485886,449.010193 215.437714,452.313385 
	C215.260345,464.475616 215.502182,476.644104 215.310059,488.805847 
	C215.242050,493.111542 216.717377,494.711273 221.092758,494.685730 
	C244.921768,494.546661 268.752563,494.535370 292.581360,494.693085 
	C297.129272,494.723175 298.787506,493.206573 298.698303,488.612885 
	C298.471863,476.952423 298.781189,465.281433 298.549469,453.621155 
	C298.466705,449.456757 299.647278,447.545258 303.948364,446.431244 
	C318.783478,442.588837 333.224121,437.549133 347.352081,429.728699 
z"/>
<path fill="#6E07F3" opacity="1.000000" stroke="none" 
	d="
M119.662834,206.950333 
	C125.137329,192.329559 132.185043,178.966812 141.715759,167.092514 
	C153.544983,152.354477 167.299301,139.716125 183.946106,130.464508 
	C204.881836,118.829277 227.052612,112.207069 251.232529,111.417946 
	C274.747009,110.650536 297.152008,114.608566 318.394409,124.262329 
	C332.331696,130.596237 344.955933,139.181595 356.279968,149.752319 
	C369.441925,162.038635 380.231049,176.031204 388.013489,192.136398 
	C397.203278,211.154022 401.879730,231.221558 402.620728,252.592194 
	C403.746826,285.070312 394.989105,314.334625 376.616058,340.612305 
	C355.558105,370.729889 326.855865,390.065521 290.950958,398.879578 
	C279.775787,401.622925 268.524048,403.340210 257.218628,403.143799 
	C226.488052,402.609802 198.097000,394.325104 172.761612,376.197083 
	C146.576599,357.461090 128.565536,332.840240 118.269485,302.541199 
	C113.934402,289.783966 111.933426,276.576935 111.463196,262.997284 
	C110.800743,243.866074 113.173363,225.352295 119.662834,206.950333 
M249.884506,212.405167 
	C246.846237,215.471588 243.504974,218.227478 244.477081,223.443222 
	C245.688705,229.943985 246.552277,236.516205 247.363342,243.082626 
	C247.874527,247.221283 249.970306,249.244385 254.113876,249.639481 
	C258.224701,250.031464 262.377502,250.478806 266.375031,251.459686 
	C274.628662,253.484894 280.866333,251.921097 287.057129,245.147247 
	C300.308289,230.648117 314.634521,217.130188 328.566559,203.256714 
	C330.061523,201.767990 331.299652,199.854675 333.785522,199.254745 
	C334.316254,200.248703 334.981049,201.198196 335.361481,202.250504 
	C340.988281,217.814438 344.855682,233.461365 342.569153,250.414383 
	C340.006042,269.417603 332.341003,285.720184 319.493256,299.575684 
	C310.936157,308.804016 300.575500,315.731781 288.723206,320.274628 
	C286.133789,321.267090 283.332153,321.995544 283.354309,325.842834 
	C283.452179,342.838440 283.382477,359.834961 283.409821,376.831085 
	C283.414093,379.495667 284.461792,380.851013 287.486420,380.089691 
	C295.899323,377.972107 304.095734,375.177582 311.863525,371.387970 
	C327.108215,363.950684 340.252533,353.684540 351.680481,341.117004 
	C359.466522,332.554535 365.877991,323.047760 370.887573,312.741180 
	C380.031616,293.928497 384.379120,274.041748 383.743011,252.940140 
	C383.133484,232.719513 377.769653,213.980957 368.182068,196.401657 
	C354.697174,171.676392 334.956726,153.529205 309.379913,141.719238 
	C286.398315,131.107605 262.246948,127.583054 237.434570,131.805023 
	C203.085190,137.649841 175.071442,154.430725 154.386887,182.916946 
	C140.570343,201.944733 132.532410,223.224319 130.546326,246.471542 
	C128.327515,272.442535 133.909286,296.983246 146.974792,319.708191 
	C158.055222,338.980560 173.094177,354.330627 192.139221,365.775604 
	C193.280624,366.461517 194.369431,367.293152 196.087799,366.407349 
	C196.231155,365.809265 196.576447,365.037720 196.577744,364.265594 
	C196.610840,344.436798 196.595291,324.607971 196.629562,304.779205 
	C196.633331,302.595673 195.612335,301.008331 194.243713,299.472412 
	C176.527802,279.590973 168.526611,256.670258 171.478210,229.876297 
	C173.402573,212.407257 179.583374,196.733932 191.122742,183.865494 
	C215.257858,156.950607 245.493942,148.280945 280.531250,156.945190 
	C286.462952,158.412033 292.508453,160.141693 298.918488,163.836792 
	C282.316101,180.283157 266.358612,196.090698 249.884506,212.405167 
M295.311676,263.812164 
	C292.831024,266.278229 290.362823,268.757050 287.864197,271.204773 
	C286.680603,272.364258 285.605408,273.218109 283.549500,272.913544 
	C267.832977,270.585358 252.088104,268.447144 236.346024,266.293945 
	C232.877991,265.819580 231.145172,263.881836 230.690872,260.477386 
	C228.677231,245.387482 226.808060,230.273270 224.419189,215.242126 
	C223.853714,211.684128 224.934708,209.720154 227.188782,207.492218 
	C237.375519,197.423508 247.474899,187.265991 257.550812,177.086105 
	C258.720337,175.904495 260.507477,174.992493 260.558319,172.398666 
	C258.630371,172.398666 256.978271,172.284088 255.346024,172.415894 
	C231.489120,174.342194 212.393250,184.635788 199.599731,205.162125 
	C192.610947,216.375153 188.887329,229.016953 189.611176,242.167526 
	C190.613770,260.382477 197.884048,276.251465 211.296127,288.928467 
	C214.321899,291.788422 215.492157,294.831512 215.461487,299.011139 
	C215.284256,323.162628 215.463730,347.316681 215.294769,371.468292 
	C215.266083,375.568481 216.793854,377.482147 220.586685,378.523193 
	C232.804581,381.876709 245.113983,384.232483 257.882904,383.653290 
	C264.358734,383.359558 264.613953,383.340057 264.619415,376.812378 
	C264.637482,355.158173 264.689911,333.503632 264.577728,311.850037 
	C264.560455,308.515411 265.395050,307.017303 268.955505,306.179016 
	C292.823975,300.559204 310.051331,286.726776 319.401337,263.825531 
	C322.901611,255.252182 324.993439,246.280029 324.430603,236.946793 
	C324.001221,236.649277 323.571869,236.351761 323.142517,236.054245 
	C314.032959,245.140808 304.923431,254.227371 295.311676,263.812164 
z"/>
</svg>