<?xml version="1.0" standalone="no"?>
<!DOCTYPE svg PUBLIC "-//W3C//DTD SVG 20010904//EN"
 "http://www.w3.org/TR/2001/REC-SVG-20010904/DTD/svg10.dtd">
<svg version="1.0" xmlns="http://www.w3.org/2000/svg"
 width="512.000000pt" height="512.000000pt" viewBox="0 0 512.000000 512.000000"
 preserveAspectRatio="xMidYMid meet">

<g transform="translate(0.000000,512.000000) scale(0.100000,-0.100000)"
fill="#6E07F3" stroke="none">
<path d="M1066 5025 c-597 -113 -1016 -646 -983 -1249 14 -248 105 -487 259
-679 l58 -72 0 -935 0 -934 -161 -162 -161 -162 4 -224 3 -224 37 -76 c45 -91
103 -147 196 -191 l67 -32 2176 0 2175 0 76 37 c91 45 147 103 191 196 l32 67
3 223 4 224 -161 162 -161 162 0 614 0 615 59 79 c268 357 307 853 100 1256
-207 403 -611 650 -1064 650 -266 0 -508 -78 -711 -231 l-79 -59 -287 0 c-279
0 -288 1 -288 19 0 78 -121 344 -209 461 -67 89 -210 225 -300 284 -99 66
-245 130 -367 162 -126 33 -381 43 -508 19z m379 -160 c329 -53 613 -261 760
-555 42 -86 72 -168 97 -270 17 -71 17 -316 0 -395 -91 -425 -402 -736 -827
-827 -79 -17 -324 -17 -395 0 -390 94 -664 337 -787 697 -164 480 62 1023 522
1253 198 99 413 133 630 97z m2560 -640 c228 -37 426 -143 590 -316 122 -129
205 -278 252 -457 23 -85 26 -116 26 -252 0 -135 -4 -168 -27 -255 -29 -109
-104 -270 -164 -353 l-39 -53 -7 70 c-21 227 -172 414 -394 486 l-52 17 30 38
c40 50 77 134 90 200 16 82 12 296 -5 365 -67 256 -329 415 -580 350 -172 -45
-305 -179 -350 -352 -17 -67 -20 -282 -5 -363 13 -66 50 -150 90 -200 l30 -38
-52 -17 c-130 -42 -253 -136 -314 -240 -42 -72 -73 -168 -80 -246 l-7 -70 -39
53 c-60 83 -135 244 -164 353 -23 87 -27 120 -27 255 0 136 3 167 26 252 47
179 130 328 252 457 242 256 579 372 920 316z m-1159 -352 c-18 -27 -41 -63
-50 -80 l-17 -33 -149 0 -150 0 0 80 0 80 200 0 200 0 -34 -47z m1125 18 c69
-33 112 -74 150 -143 l34 -63 0 -165 0 -165 -34 -63 c-38 -70 -70 -101 -145
-140 -43 -22 -64 -26 -136 -26 -78 -1 -90 2 -148 33 -69 37 -109 79 -144 151
-21 41 -23 59 -23 210 0 155 1 168 25 215 42 86 123 152 215 176 49 13 158 2
206 -20z m-1266 -308 c-66 -174 -82 -441 -36 -643 151 -669 828 -1076 1488
-895 l83 23 0 -274 0 -274 -1680 0 -1680 0 0 596 c0 564 1 596 17 589 174 -66
441 -82 643 -36 346 78 642 306 803 619 48 91 107 253 107 291 0 20 5 21 131
21 121 0 131 -1 124 -17z m1291 -655 c-7 -39 -31 -74 -70 -102 -39 -29 -133
-29 -172 0 -39 28 -63 63 -70 102 l-6 32 162 0 163 0 -7 -32z m-472 -21 c9
-61 47 -136 92 -181 122 -122 326 -122 448 0 45 45 83 120 92 181 3 24 12 43
19 43 7 0 44 -16 82 -35 86 -43 144 -103 186 -193 30 -63 32 -76 35 -202 l4
-136 -37 -28 c-54 -42 -210 -120 -285 -145 -306 -98 -636 -50 -904 131 l-58
40 4 137 c3 128 5 140 35 203 42 90 100 150 186 193 38 19 75 35 82 35 7 0 16
-19 19 -43z m-2804 -815 l0 -683 25 -24 24 -25 1791 0 1791 0 24 25 25 24 0
363 0 364 80 52 80 51 0 -519 0 -520 -2000 0 -2000 0 0 840 0 839 80 -51 80
-52 0 -684z m3965 -1132 l80 -80 -2205 0 -2205 0 80 80 80 80 2045 0 2045 0
80 -80z m195 -376 c0 -78 -5 -154 -12 -178 -16 -55 -99 -138 -154 -154 -60
-18 -4248 -18 -4308 0 -55 16 -138 99 -154 154 -7 24 -12 100 -12 178 l0 136
2320 0 2320 0 0 -136z"/>
<path d="M1200 4475 l0 -84 -50 -22 c-66 -29 -143 -112 -166 -181 -38 -111
-14 -233 62 -317 56 -62 128 -98 220 -110 82 -10 102 -19 138 -61 95 -113 -11
-283 -159 -256 -51 10 -103 60 -117 112 l-12 44 -79 0 -79 0 7 -47 c15 -102
87 -197 182 -240 l53 -24 0 -85 0 -84 80 0 80 0 0 84 0 84 55 26 c191 94 238
343 94 500 -57 63 -119 93 -218 105 -79 10 -99 19 -135 61 -95 113 11 283 159
256 51 -10 103 -60 117 -112 l12 -44 79 0 80 0 -7 43 c-17 106 -87 200 -183
244 l-53 24 0 85 0 84 -80 0 -80 0 0 -85z"/>
<path d="M1763 2620 l-52 -57 27 -25 c34 -31 97 -78 105 -78 8 0 87 116 87
127 0 4 -15 18 -33 30 -17 12 -43 31 -57 41 l-25 19 -52 -57z"/>
<path d="M2032 2444 c-18 -36 -30 -69 -27 -74 5 -8 128 -60 143 -60 10 0 56
140 48 147 -6 6 -118 53 -126 53 -3 0 -20 -30 -38 -66z"/>
<path d="M2346 2398 c-17 -78 -26 -131 -24 -134 4 -4 161 -25 163 -22 1 2 5
37 9 80 l7 76 -28 5 c-15 3 -49 9 -75 12 -44 6 -48 4 -52 -17z"/>
<path d="M2701 2408 l-54 -10 6 -75 c3 -41 8 -77 10 -80 10 -10 168 20 164 31
-2 6 -10 41 -17 79 -15 75 -11 73 -109 55z"/>
<path d="M2352 4788 c-41 -6 -62 -14 -59 -21 2 -7 10 -42 17 -79 8 -38 18 -68
24 -68 5 0 38 5 73 11 l63 11 0 42 c0 22 -3 58 -6 79 -7 42 -6 41 -112 25z"/>
<path d="M2630 4737 c0 -36 -3 -72 -6 -80 -4 -12 8 -17 63 -23 37 -5 72 -9 78
-9 5 0 13 20 17 45 4 25 10 59 13 77 6 34 14 31 -117 49 l-48 6 0 -65z"/>
<path d="M2941 4659 c-13 -39 -19 -74 -14 -78 13 -11 124 -54 127 -50 14 16
66 132 61 138 -5 9 -128 61 -143 61 -4 0 -18 -32 -31 -71z"/>
<path d="M3230 4521 c-22 -33 -40 -64 -39 -68 0 -4 25 -28 56 -52 l56 -43 52
58 c50 56 52 60 37 77 -19 21 -106 87 -115 87 -4 0 -24 -27 -47 -59z"/>
</g>
</svg>
