<svg version="1.1" id="Layer_1" xmlns="http://www.w3.org/2000/svg" xmlns:xlink="http://www.w3.org/1999/xlink" x="0px" y="0px"
	 width="100%" viewBox="0 0 512 512" enable-background="new 0 0 512 512" xml:space="preserve">
<path fill="#6E07F3" opacity="1.000000" stroke="none" 
	d="
M415.468384,513.000000 
	C409.716858,510.008575 404.239532,507.642029 399.738739,503.077118 
	C385.373199,488.506714 386.880829,458.728943 409.103760,448.024384 
	C413.333954,445.986725 414.788361,443.624542 414.760895,438.947113 
	C414.558228,404.454346 414.568634,369.959412 414.753845,335.466431 
	C414.779541,330.679077 413.435852,329.160767 408.578339,329.247101 
	C392.752747,329.528290 376.915863,329.530426 361.090485,329.243958 
	C356.318573,329.157562 354.875732,330.792725 355.289856,335.278137 
	C355.594971,338.582581 355.371094,341.938293 355.341064,345.270782 
	C355.280823,351.958466 351.970001,355.334381 345.272858,355.343231 
	C321.277130,355.374939 297.280609,355.448883 273.286224,355.265045 
	C268.820099,355.230865 267.161713,356.345490 267.243103,361.116150 
	C267.521576,377.441864 267.455688,393.776459 267.266876,410.104767 
	C267.224579,413.763062 268.279572,415.926086 271.680084,417.429413 
	C296.190338,428.265533 298.375305,462.706451 277.344147,477.386383 
	C265.907715,485.369141 253.191223,486.165283 240.625717,479.679474 
	C229.052567,473.705963 223.277344,463.884735 222.613449,450.838989 
	C221.799088,434.837158 229.018204,423.843292 243.098801,416.978058 
	C245.647186,415.735565 246.735596,414.134033 246.713043,411.185242 
	C246.583038,394.189240 246.570969,377.191101 246.707031,360.195190 
	C246.737137,356.434113 245.286514,355.253845 241.686035,355.304840 
	C231.356628,355.451080 221.019852,355.516602 210.694183,355.270050 
	C206.539871,355.170868 205.239777,356.544220 205.273956,360.685394 
	C205.444504,381.347015 205.038437,402.017487 205.477615,422.671143 
	C205.709167,433.560394 200.813293,435.973877 192.508484,436.164246 
	C172.189575,436.629974 151.849884,436.524780 131.524658,436.229553 
	C122.103607,436.092682 118.545006,432.293976 118.661247,424.216034 
	C118.748642,418.142212 122.105545,414.689087 128.206894,414.670258 
	C145.037125,414.618408 161.869354,414.515045 178.696808,414.735901 
	C183.211807,414.795135 184.829681,413.546417 184.753784,408.833252 
	C184.496277,392.840210 184.548874,376.839294 184.725769,360.844055 
	C184.770691,356.782776 183.579941,354.957214 179.339691,355.315277 
	C176.361786,355.566681 173.309525,355.059387 170.352341,355.411102 
	C162.661179,356.325775 158.378433,351.176788 158.506409,343.875305 
	C158.915192,320.553284 158.533478,297.218384 158.751007,273.891205 
	C158.796921,268.968475 157.515884,267.150085 152.324356,267.244965 
	C136.166000,267.540283 119.997353,267.458679 103.835922,267.260559 
	C100.169777,267.215607 98.085098,268.320557 96.515327,271.668610 
	C84.873573,296.498291 51.811283,297.670410 37.447289,278.409912 
	C29.076332,267.185425 27.724255,254.575958 33.674198,241.813766 
	C39.436821,229.453354 49.518871,223.193237 63.252441,222.610199 
	C78.958260,221.943451 90.016838,228.800156 96.795319,242.759430 
	C98.229919,245.713806 100.119553,246.753326 103.416908,246.721390 
	C120.079086,246.559921 136.744400,246.564590 153.406860,246.710464 
	C157.210007,246.743759 158.799545,245.648941 158.718063,241.612915 
	C158.509583,231.285645 158.485229,220.947342 158.731934,210.621689 
	C158.835236,206.298630 157.055908,205.265488 153.106400,205.290497 
	C132.610840,205.420395 112.105919,205.001892 91.620781,205.481018 
	C80.168419,205.748886 78.601669,200.682739 77.706078,191.817963 
	C77.456047,189.343109 77.652267,186.822662 77.652138,184.323135 
	C77.650146,147.496262 77.604782,110.669258 77.716782,73.842728 
	C77.728195,70.090561 76.745926,67.917511 73.211327,66.004677 
	C59.572277,58.623577 53.414497,46.944408 54.656147,31.420090 
	C55.688358,18.514343 62.308887,9.468728 73.685684,3.664957 
	C75.005920,2.991450 76.293251,2.253453 77.797920,1.272678 
	C85.020950,1.000000 92.041893,1.000000 99.531418,1.000000 
	C104.564888,4.727911 110.163139,6.675767 114.564682,11.013951 
	C125.357033,21.650934 127.133003,45.561893 115.451569,57.544918 
	C111.840530,61.249184 108.301117,65.022141 103.255264,66.803337 
	C100.365608,67.823402 99.279091,69.669899 99.288025,72.840446 
	C99.388504,108.505196 99.394516,144.170456 99.288147,179.835175 
	C99.277039,183.560257 100.520836,184.745529 104.204842,184.712677 
	C120.702744,184.565552 137.203323,184.579697 153.701538,184.710739 
	C157.340027,184.739624 158.928436,183.543854 158.688705,179.807480 
	C158.486359,176.654099 158.958908,173.441208 158.593994,170.317612 
	C157.644409,162.189789 163.078918,158.391495 170.114243,158.505966 
	C193.440323,158.885544 216.776443,158.653351 240.108704,158.645538 
	C246.627609,158.643356 246.644852,158.627075 246.651062,151.924942 
	C246.665894,135.925674 246.566864,119.925377 246.739990,103.927940 
	C246.779282,100.297836 245.711533,98.105133 242.340042,96.529800 
	C222.137207,87.090042 217.316635,63.439644 227.541794,46.159966 
	C232.637787,37.548168 240.689911,32.490776 250.377716,30.811150 
	C268.420166,27.683035 285.649780,37.616974 290.568665,55.677773 
	C294.677673,70.765167 287.655426,88.778206 273.482025,95.488068 
	C268.668823,97.766708 267.110718,100.539116 267.224335,105.749695 
	C267.569366,121.574791 267.460022,137.413483 267.274017,153.243896 
	C267.226349,157.297974 268.364532,158.841644 272.613159,158.732162 
	C282.772644,158.470352 292.948792,158.451065 303.107117,158.733292 
	C307.614471,158.858521 308.770782,157.177979 308.735870,152.917633 
	C308.566589,132.253342 308.962555,111.580803 308.543335,90.923660 
	C308.333466,80.581726 313.220886,78.024651 320.900482,77.850487 
	C341.555237,77.382019 362.232666,77.438057 382.891113,77.821625 
	C392.222351,77.994888 395.577942,81.953323 395.342804,90.208496 
	C395.182312,95.843262 391.689117,99.307335 385.843048,99.327240 
	C369.177338,99.383987 352.511322,99.343864 335.845428,99.351753 
	C329.366150,99.354820 329.354980,99.366875 329.352234,106.044617 
	C329.345734,121.877228 329.452454,137.710953 329.279053,153.541656 
	C329.236389,157.435822 330.418030,159.066116 334.406891,158.705231 
	C337.217010,158.450989 340.098419,158.922440 342.896606,158.609940 
	C351.960205,157.597733 355.639221,162.873001 355.496307,170.873688 
	C355.079681,194.198486 355.473480,217.536758 355.247589,240.866821 
	C355.201996,245.573349 356.709839,246.808014 361.238403,246.741211 
	C377.400818,246.502899 393.570496,246.526520 409.733673,246.736298 
	C413.593933,246.786407 415.874207,245.660522 417.521698,242.118256 
	C428.955963,217.533508 462.661835,215.933487 477.284576,236.382385 
	C485.449860,247.800919 486.319672,260.824829 479.576141,273.543518 
	C473.499939,285.003479 463.747894,290.848145 450.647583,291.420593 
	C434.811951,292.112549 424.006012,284.830231 417.176300,271.042419 
	C415.781830,268.227295 414.043335,267.289215 410.979279,267.311249 
	C394.147644,267.432434 377.313721,267.450226 360.482758,267.283142 
	C356.605011,267.244629 355.190796,268.427765 355.275879,272.416107 
	C355.499817,282.910828 355.485413,293.416107 355.281952,303.911652 
	C355.207703,307.739746 356.697388,308.728607 360.281281,308.708221 
	C380.946289,308.590515 401.621552,309.026733 422.274506,308.515472 
	C433.819244,308.229675 435.384979,313.389252 436.300262,322.092865 
	C436.490997,323.906616 436.343781,325.756470 436.343903,327.589691 
	C436.346527,365.087982 436.397003,402.586395 436.277588,440.084290 
	C436.264984,444.046143 437.248169,446.309052 441.128815,448.133759 
	C461.312683,457.624451 465.987122,486.893188 450.368988,502.829254 
	C446.027191,507.259430 440.961548,510.063324 435.268127,512.787781 
	C428.645599,513.000000 422.291199,513.000000 415.468384,513.000000 
M258.500092,179.373505 
	C234.011597,179.366409 209.522476,179.445755 185.035187,179.270416 
	C180.763626,179.239838 179.246841,180.362976 179.260391,184.866684 
	C179.405334,233.010498 179.393250,281.154999 179.274887,329.298981 
	C179.264740,333.422485 180.507553,334.734802 184.664917,334.724487 
	C232.808868,334.604706 280.953369,334.595947 329.097229,334.732086 
	C333.572784,334.744720 334.740662,333.219543 334.729858,328.941437 
	C334.609222,281.130676 334.593842,233.319290 334.747864,185.508728 
	C334.763458,180.669693 333.246796,179.223618 328.467133,179.267258 
	C305.479736,179.477203 282.489410,179.369232 258.500092,179.373505 
M461.180511,261.362488 
	C461.333344,259.388702 461.672455,257.408478 461.604492,255.442322 
	C461.390015,249.238586 455.906982,244.363556 449.299042,244.345428 
	C442.242310,244.326080 436.706238,249.027557 436.357910,255.335571 
	C436.003662,261.751770 439.837280,267.890564 445.125366,269.374786 
	C451.675140,271.213104 456.723145,268.868530 461.180511,261.362488 
M265.718628,458.245453 
	C271.192688,452.360199 271.343567,445.476044 266.115021,440.158203 
	C261.270386,435.230713 253.963455,434.705292 249.139587,438.937500 
	C243.614960,443.784607 242.485626,451.153595 246.496201,456.185760 
	C251.734314,462.758148 258.547211,463.697052 265.718628,458.245453 
M427.843475,491.565308 
	C431.460541,491.093719 433.665222,488.507996 435.750549,485.969299 
	C438.450378,482.682404 438.436035,475.938599 436.013428,472.369263 
	C432.487854,467.174805 426.548645,464.933807 420.843140,466.645172 
	C416.896027,467.829132 412.894867,473.289185 412.301086,477.320465 
	C411.128418,485.282501 418.735931,493.423584 427.843475,491.565308 
M53.404011,251.158096 
	C52.002449,253.431168 52.292095,255.965866 52.389954,258.428558 
	C52.556274,262.614227 57.196590,268.237915 61.293713,269.407928 
	C66.899162,271.008636 73.308922,268.399536 76.317474,263.292572 
	C78.618675,259.386353 77.898056,252.788666 75.239349,249.233902 
	C70.508087,242.908066 59.634987,241.594772 53.404011,251.158096 
M76.353592,34.562363 
	C76.521820,40.405754 80.086739,45.733250 84.845650,47.253094 
	C91.487595,49.374317 99.926613,44.936562 101.452003,38.520447 
	C103.067520,31.725237 98.581955,23.827623 92.363075,22.517803 
	C84.169891,20.792156 77.372612,25.555536 76.353592,34.562363 
M252.577484,52.692749 
	C250.686646,53.452194 249.228973,54.786991 247.825943,56.213161 
	C242.845795,61.275410 242.802063,68.535065 247.741043,73.481483 
	C253.403687,79.152626 260.344086,79.418472 265.759216,74.171646 
	C271.074646,69.021439 271.149597,61.819111 266.476318,56.407608 
	C262.787933,52.136562 258.244019,52.035618 252.577484,52.692749 
z"/>
<path fill="#6E07F3" opacity="1.000000" stroke="none" 
	d="
M1.000000,414.468384 
	C4.494429,408.884796 6.971846,403.233063 11.753294,398.810181 
	C23.643660,387.811371 46.343140,388.202850 58.430874,398.901489 
	C70.123329,409.250244 72.831482,429.549286 65.233192,442.293488 
	C59.113293,452.558105 50.137630,458.768555 37.749355,459.374268 
	C19.321207,460.275269 7.571213,451.533722 1.168486,434.299866 
	C1.000000,427.645599 1.000000,421.291199 1.000000,414.468384 
M46.257259,431.500916 
	C47.536606,429.248535 47.725544,426.800690 47.660538,424.272736 
	C47.536514,419.449615 43.507561,413.920624 39.083801,412.622253 
	C33.286709,410.920837 26.713764,413.544708 23.622837,418.794189 
	C21.214401,422.884552 22.287670,429.299561 25.276142,433.206207 
	C29.652224,438.926849 40.376446,440.087158 46.257259,431.500916 
z"/>
<path fill="#6E07F3" opacity="1.000000" stroke="none" 
	d="
M513.000000,97.532059 
	C508.760803,110.196693 501.165833,119.120193 488.262299,122.398460 
	C465.266937,128.240646 445.310608,112.228165 444.456085,90.277885 
	C443.824799,74.061020 454.721954,59.200172 469.441528,55.605724 
	C486.839813,51.357147 505.400940,58.908810 511.423950,76.684219 
	C511.741058,77.620056 512.257507,78.488342 512.840576,79.694031 
	C513.000000,85.688042 513.000000,91.376083 513.000000,97.532059 
M470.302277,98.226448 
	C476.429199,103.538261 483.244232,103.176521 488.753418,97.247002 
	C493.145782,92.519600 492.890228,84.990631 488.174500,80.191284 
	C483.143219,75.070770 475.790802,74.672501 470.812042,79.250877 
	C464.860016,84.724220 464.479248,91.468025 470.302277,98.226448 
z"/>
<path fill="#6E07F3" opacity="1.000000" stroke="none" 
	d="
M418.366394,99.310738 
	C411.218262,98.097153 408.760468,90.637337 409.948151,86.463394 
	C411.602081,80.651001 415.924927,77.723358 421.848206,78.490089 
	C427.829102,79.264275 431.736359,83.910065 431.304382,89.733597 
	C430.874329,95.531723 426.862671,99.198830 420.784882,99.341362 
	C420.121765,99.356911 419.457764,99.333183 418.366394,99.310738 
z"/>
<path fill="#6E07F3" opacity="1.000000" stroke="none" 
	d="
M104.080826,427.422058 
	C102.309464,433.005005 98.679718,435.963196 93.317101,435.841705 
	C89.443367,435.753937 86.043533,434.141235 84.025871,430.215485 
	C81.752930,425.793060 82.416351,421.703857 85.183754,418.101685 
	C88.134712,414.260620 92.692215,413.850891 96.971977,414.944763 
	C101.114143,416.003448 103.500648,419.290466 104.219696,423.557068 
	C104.409248,424.681793 104.214432,425.871307 104.080826,427.422058 
z"/>
<path fill="#6E07F3" opacity="1.000000" stroke="none" 
	d="
M221.254028,210.649078 
	C245.374084,210.649063 269.025513,210.640091 292.676941,210.656601 
	C300.029114,210.661728 303.334198,213.894958 303.340149,221.117050 
	C303.359863,245.101593 303.361572,269.086151 303.338470,293.070709 
	C303.331757,300.039703 300.018829,303.335175 292.990082,303.342560 
	C269.005585,303.367706 245.020996,303.367371 221.036499,303.339508 
	C213.974014,303.331299 210.673737,300.066284 210.666718,293.089935 
	C210.642456,268.938843 210.641464,244.787674 210.672485,220.636612 
	C210.681076,213.947052 213.834412,210.900925 221.254028,210.649078 
M231.349686,275.345764 
	C231.374542,282.631470 231.374542,282.639893 238.695938,282.643860 
	C251.508316,282.650818 264.322266,282.533112 277.132111,282.713806 
	C281.099640,282.769775 282.797882,281.709290 282.729370,277.406067 
	C282.512238,263.765167 282.540131,250.117264 282.716125,236.475204 
	C282.767212,232.514175 281.310760,231.252914 277.463409,231.296036 
	C263.820770,231.449036 250.174255,231.452347 236.531830,231.290756 
	C232.680923,231.245163 231.224152,232.479156 231.282730,236.450409 
	C231.469254,249.093628 231.350555,261.741364 231.349686,275.345764 
z"/>
</svg>